<mxfile host="app.diagrams.net" modified="2024-03-07T15:56:27.990Z" agent="Mozilla/5.0 (Windows NT 10.0; Win64; x64) AppleWebKit/537.36 (KHTML, like Gecko) Chrome/122.0.0.0 Safari/537.36" etag="96s9PoiiUeavBwf3ucTq" version="24.0.0" type="github">
  <diagram id="R2lEEEUBdFMjLlhIrx00" name="Page-1">
    <mxGraphModel dx="1909" dy="949" grid="1" gridSize="10" guides="1" tooltips="1" connect="1" arrows="1" fold="1" page="1" pageScale="1" pageWidth="850" pageHeight="1100" math="0" shadow="0" extFonts="Permanent Marker^https://fonts.googleapis.com/css?family=Permanent+Marker">
      <root>
        <mxCell id="0" />
        <mxCell id="1" parent="0" />
        <mxCell id="zbALXQMO0kuMNfBM5tC5-1" value="&lt;u&gt;Código&lt;/u&gt;" style="rounded=0;whiteSpace=wrap;html=1;fillColor=#dae8fc;strokeColor=#6c8ebf;" vertex="1" parent="1">
          <mxGeometry x="40" y="100" width="120" height="60" as="geometry" />
        </mxCell>
        <mxCell id="zbALXQMO0kuMNfBM5tC5-3" value="Morada" style="rounded=0;whiteSpace=wrap;html=1;fillColor=#dae8fc;strokeColor=#6c8ebf;" vertex="1" parent="1">
          <mxGeometry x="160" y="100" width="120" height="60" as="geometry" />
        </mxCell>
        <mxCell id="zbALXQMO0kuMNfBM5tC5-5" value="&lt;span style=&quot;&quot;&gt;Armazém&lt;/span&gt;" style="text;strokeColor=none;fillColor=none;html=1;fontSize=24;fontStyle=1;verticalAlign=middle;align=center;fontColor=#66B2FF;labelBackgroundColor=none;" vertex="1" parent="1">
          <mxGeometry x="40" y="50" width="110" height="40" as="geometry" />
        </mxCell>
        <mxCell id="zbALXQMO0kuMNfBM5tC5-7" value="&lt;u&gt;Código&lt;/u&gt;" style="rounded=0;whiteSpace=wrap;html=1;fillColor=#dae8fc;strokeColor=#6c8ebf;" vertex="1" parent="1">
          <mxGeometry x="40" y="260" width="120" height="60" as="geometry" />
        </mxCell>
        <mxCell id="zbALXQMO0kuMNfBM5tC5-9" value="&lt;span style=&quot;&quot;&gt;Produto&lt;/span&gt;" style="text;strokeColor=none;fillColor=none;html=1;fontSize=24;fontStyle=1;verticalAlign=middle;align=center;fontColor=#66B2FF;labelBackgroundColor=none;" vertex="1" parent="1">
          <mxGeometry x="40" y="210" width="90" height="40" as="geometry" />
        </mxCell>
        <mxCell id="zbALXQMO0kuMNfBM5tC5-56" style="edgeStyle=orthogonalEdgeStyle;rounded=0;orthogonalLoop=1;jettySize=auto;html=1;exitX=0.5;exitY=0;exitDx=0;exitDy=0;entryX=0.5;entryY=1;entryDx=0;entryDy=0;" edge="1" parent="1" source="zbALXQMO0kuMNfBM5tC5-13" target="zbALXQMO0kuMNfBM5tC5-1">
          <mxGeometry relative="1" as="geometry" />
        </mxCell>
        <mxCell id="zbALXQMO0kuMNfBM5tC5-13" value="&lt;u&gt;Armazém_Código&lt;/u&gt;" style="rounded=0;whiteSpace=wrap;html=1;fillColor=#dae8fc;strokeColor=#6c8ebf;" vertex="1" parent="1">
          <mxGeometry x="160" y="260" width="120" height="60" as="geometry" />
        </mxCell>
        <mxCell id="zbALXQMO0kuMNfBM5tC5-14" value="Nome&lt;span style=&quot;white-space: pre;&quot;&gt;&#x9;&lt;/span&gt;" style="rounded=0;whiteSpace=wrap;html=1;fillColor=#dae8fc;strokeColor=#6c8ebf;" vertex="1" parent="1">
          <mxGeometry x="280" y="260" width="120" height="60" as="geometry" />
        </mxCell>
        <mxCell id="zbALXQMO0kuMNfBM5tC5-15" value="IVA" style="rounded=0;whiteSpace=wrap;html=1;fillColor=#dae8fc;strokeColor=#6c8ebf;" vertex="1" parent="1">
          <mxGeometry x="400" y="260" width="120" height="60" as="geometry" />
        </mxCell>
        <mxCell id="zbALXQMO0kuMNfBM5tC5-16" value="Preço" style="rounded=0;whiteSpace=wrap;html=1;fillColor=#dae8fc;strokeColor=#6c8ebf;" vertex="1" parent="1">
          <mxGeometry x="520" y="260" width="120" height="60" as="geometry" />
        </mxCell>
        <mxCell id="zbALXQMO0kuMNfBM5tC5-19" value="&lt;u&gt;Código&lt;/u&gt;" style="rounded=0;whiteSpace=wrap;html=1;fillColor=#dae8fc;strokeColor=#6c8ebf;" vertex="1" parent="1">
          <mxGeometry x="40" y="420" width="120" height="60" as="geometry" />
        </mxCell>
        <mxCell id="zbALXQMO0kuMNfBM5tC5-20" value="&lt;span style=&quot;&quot;&gt;Tipo_Fornecedor&lt;/span&gt;" style="text;strokeColor=none;fillColor=none;html=1;fontSize=24;fontStyle=1;verticalAlign=middle;align=center;fontColor=#66B2FF;labelBackgroundColor=none;" vertex="1" parent="1">
          <mxGeometry x="40" y="370" width="200" height="40" as="geometry" />
        </mxCell>
        <mxCell id="zbALXQMO0kuMNfBM5tC5-22" value="Nome&lt;span style=&quot;white-space: pre;&quot;&gt;&#x9;&lt;/span&gt;" style="rounded=0;whiteSpace=wrap;html=1;fillColor=#dae8fc;strokeColor=#6c8ebf;" vertex="1" parent="1">
          <mxGeometry x="160" y="420" width="120" height="60" as="geometry" />
        </mxCell>
        <mxCell id="zbALXQMO0kuMNfBM5tC5-25" value="&lt;u&gt;Código&lt;/u&gt;" style="rounded=0;whiteSpace=wrap;html=1;fillColor=#dae8fc;strokeColor=#6c8ebf;" vertex="1" parent="1">
          <mxGeometry x="40" y="580" width="120" height="60" as="geometry" />
        </mxCell>
        <mxCell id="zbALXQMO0kuMNfBM5tC5-26" value="Codições_Pagamento" style="text;strokeColor=none;fillColor=none;html=1;fontSize=24;fontStyle=1;verticalAlign=middle;align=center;fontColor=#66B2FF;labelBackgroundColor=none;" vertex="1" parent="1">
          <mxGeometry x="40" y="530" width="250" height="40" as="geometry" />
        </mxCell>
        <mxCell id="zbALXQMO0kuMNfBM5tC5-27" value="Nome&lt;span style=&quot;white-space: pre;&quot;&gt;&#x9;&lt;/span&gt;" style="rounded=0;whiteSpace=wrap;html=1;fillColor=#dae8fc;strokeColor=#6c8ebf;" vertex="1" parent="1">
          <mxGeometry x="160" y="580" width="120" height="60" as="geometry" />
        </mxCell>
        <mxCell id="zbALXQMO0kuMNfBM5tC5-28" value="Prazo" style="rounded=0;whiteSpace=wrap;html=1;fillColor=#dae8fc;strokeColor=#6c8ebf;" vertex="1" parent="1">
          <mxGeometry x="280" y="580" width="120" height="60" as="geometry" />
        </mxCell>
        <mxCell id="zbALXQMO0kuMNfBM5tC5-30" value="&lt;u&gt;Código&lt;/u&gt;" style="rounded=0;whiteSpace=wrap;html=1;fillColor=#dae8fc;strokeColor=#6c8ebf;" vertex="1" parent="1">
          <mxGeometry x="40" y="740" width="120" height="60" as="geometry" />
        </mxCell>
        <mxCell id="zbALXQMO0kuMNfBM5tC5-31" value="Codições_Pagamento" style="text;strokeColor=none;fillColor=none;html=1;fontSize=24;fontStyle=1;verticalAlign=middle;align=center;fontColor=#66B2FF;labelBackgroundColor=none;" vertex="1" parent="1">
          <mxGeometry x="40" y="690" width="250" height="40" as="geometry" />
        </mxCell>
        <mxCell id="zbALXQMO0kuMNfBM5tC5-32" value="Nome&lt;span style=&quot;white-space: pre;&quot;&gt;&#x9;&lt;/span&gt;" style="rounded=0;whiteSpace=wrap;html=1;fillColor=#dae8fc;strokeColor=#6c8ebf;" vertex="1" parent="1">
          <mxGeometry x="160" y="740" width="120" height="60" as="geometry" />
        </mxCell>
        <mxCell id="zbALXQMO0kuMNfBM5tC5-33" value="Prazo" style="rounded=0;whiteSpace=wrap;html=1;fillColor=#dae8fc;strokeColor=#6c8ebf;" vertex="1" parent="1">
          <mxGeometry x="280" y="740" width="120" height="60" as="geometry" />
        </mxCell>
        <mxCell id="zbALXQMO0kuMNfBM5tC5-34" value="&lt;u&gt;Código&lt;/u&gt;" style="rounded=0;whiteSpace=wrap;html=1;fillColor=#dae8fc;strokeColor=#6c8ebf;" vertex="1" parent="1">
          <mxGeometry x="40" y="900" width="120" height="60" as="geometry" />
        </mxCell>
        <mxCell id="zbALXQMO0kuMNfBM5tC5-35" value="Fornecedor" style="text;strokeColor=none;fillColor=none;html=1;fontSize=24;fontStyle=1;verticalAlign=middle;align=center;fontColor=#66B2FF;labelBackgroundColor=none;" vertex="1" parent="1">
          <mxGeometry x="40" y="850" width="130" height="40" as="geometry" />
        </mxCell>
        <mxCell id="zbALXQMO0kuMNfBM5tC5-57" style="edgeStyle=orthogonalEdgeStyle;rounded=0;orthogonalLoop=1;jettySize=auto;html=1;exitX=0.5;exitY=0;exitDx=0;exitDy=0;entryX=0.5;entryY=1;entryDx=0;entryDy=0;" edge="1" parent="1" source="zbALXQMO0kuMNfBM5tC5-36" target="zbALXQMO0kuMNfBM5tC5-25">
          <mxGeometry relative="1" as="geometry">
            <Array as="points">
              <mxPoint x="220" y="870" />
              <mxPoint x="520" y="870" />
              <mxPoint x="520" y="680" />
              <mxPoint x="100" y="680" />
            </Array>
          </mxGeometry>
        </mxCell>
        <mxCell id="zbALXQMO0kuMNfBM5tC5-36" value="Tipo_Fornecedor&lt;div&gt;_Código&lt;/div&gt;" style="rounded=0;whiteSpace=wrap;html=1;fillColor=#dae8fc;strokeColor=#6c8ebf;" vertex="1" parent="1">
          <mxGeometry x="160" y="900" width="120" height="60" as="geometry" />
        </mxCell>
        <mxCell id="zbALXQMO0kuMNfBM5tC5-58" style="edgeStyle=orthogonalEdgeStyle;rounded=0;orthogonalLoop=1;jettySize=auto;html=1;exitX=0.5;exitY=0;exitDx=0;exitDy=0;entryX=0.5;entryY=1;entryDx=0;entryDy=0;" edge="1" parent="1" source="zbALXQMO0kuMNfBM5tC5-37" target="zbALXQMO0kuMNfBM5tC5-30">
          <mxGeometry relative="1" as="geometry">
            <Array as="points">
              <mxPoint x="340" y="840" />
              <mxPoint x="100" y="840" />
            </Array>
          </mxGeometry>
        </mxCell>
        <mxCell id="zbALXQMO0kuMNfBM5tC5-37" value="Condições&lt;div&gt;_Pagamento_Código&lt;/div&gt;" style="rounded=0;whiteSpace=wrap;html=1;fillColor=#dae8fc;strokeColor=#6c8ebf;" vertex="1" parent="1">
          <mxGeometry x="280" y="900" width="120" height="60" as="geometry" />
        </mxCell>
        <mxCell id="zbALXQMO0kuMNfBM5tC5-40" value="Nome" style="rounded=0;whiteSpace=wrap;html=1;fillColor=#dae8fc;strokeColor=#6c8ebf;" vertex="1" parent="1">
          <mxGeometry x="400" y="900" width="120" height="60" as="geometry" />
        </mxCell>
        <mxCell id="zbALXQMO0kuMNfBM5tC5-41" value="Fax" style="rounded=0;whiteSpace=wrap;html=1;fillColor=#dae8fc;strokeColor=#6c8ebf;" vertex="1" parent="1">
          <mxGeometry x="520" y="900" width="120" height="60" as="geometry" />
        </mxCell>
        <mxCell id="zbALXQMO0kuMNfBM5tC5-42" value="NIF" style="rounded=0;whiteSpace=wrap;html=1;fillColor=#dae8fc;strokeColor=#6c8ebf;" vertex="1" parent="1">
          <mxGeometry x="640" y="900" width="120" height="60" as="geometry" />
        </mxCell>
        <mxCell id="zbALXQMO0kuMNfBM5tC5-43" value="&lt;u&gt;Número&lt;/u&gt;" style="rounded=0;whiteSpace=wrap;html=1;fillColor=#dae8fc;strokeColor=#6c8ebf;" vertex="1" parent="1">
          <mxGeometry x="40" y="1060" width="120" height="60" as="geometry" />
        </mxCell>
        <mxCell id="zbALXQMO0kuMNfBM5tC5-44" value="Encomenda" style="text;strokeColor=none;fillColor=none;html=1;fontSize=24;fontStyle=1;verticalAlign=middle;align=center;fontColor=#66B2FF;labelBackgroundColor=none;" vertex="1" parent="1">
          <mxGeometry x="40" y="1010" width="130" height="40" as="geometry" />
        </mxCell>
        <mxCell id="zbALXQMO0kuMNfBM5tC5-59" style="edgeStyle=orthogonalEdgeStyle;rounded=0;orthogonalLoop=1;jettySize=auto;html=1;exitX=0.5;exitY=0;exitDx=0;exitDy=0;entryX=0.5;entryY=1;entryDx=0;entryDy=0;" edge="1" parent="1" source="zbALXQMO0kuMNfBM5tC5-45" target="zbALXQMO0kuMNfBM5tC5-34">
          <mxGeometry relative="1" as="geometry" />
        </mxCell>
        <mxCell id="zbALXQMO0kuMNfBM5tC5-45" value="Fornecedor&lt;div&gt;_Código&lt;/div&gt;" style="rounded=0;whiteSpace=wrap;html=1;fillColor=#dae8fc;strokeColor=#6c8ebf;" vertex="1" parent="1">
          <mxGeometry x="160" y="1060" width="120" height="60" as="geometry" />
        </mxCell>
        <mxCell id="zbALXQMO0kuMNfBM5tC5-60" style="edgeStyle=orthogonalEdgeStyle;rounded=0;orthogonalLoop=1;jettySize=auto;html=1;exitX=0.5;exitY=0;exitDx=0;exitDy=0;entryX=0.5;entryY=1;entryDx=0;entryDy=0;" edge="1" parent="1" source="zbALXQMO0kuMNfBM5tC5-46" target="zbALXQMO0kuMNfBM5tC5-7">
          <mxGeometry relative="1" as="geometry">
            <Array as="points">
              <mxPoint x="340" y="1020" />
              <mxPoint x="830" y="1020" />
              <mxPoint x="830" y="360" />
              <mxPoint x="100" y="360" />
            </Array>
          </mxGeometry>
        </mxCell>
        <mxCell id="zbALXQMO0kuMNfBM5tC5-46" value="&lt;span style=&quot;background-color: initial;&quot;&gt;Produto_Código&lt;/span&gt;" style="rounded=0;whiteSpace=wrap;html=1;fillColor=#dae8fc;strokeColor=#6c8ebf;" vertex="1" parent="1">
          <mxGeometry x="280" y="1060" width="120" height="60" as="geometry" />
        </mxCell>
        <mxCell id="zbALXQMO0kuMNfBM5tC5-47" value="Data" style="rounded=0;whiteSpace=wrap;html=1;fillColor=#dae8fc;strokeColor=#6c8ebf;" vertex="1" parent="1">
          <mxGeometry x="400" y="1060" width="120" height="60" as="geometry" />
        </mxCell>
        <mxCell id="zbALXQMO0kuMNfBM5tC5-48" value="Quantidade" style="rounded=0;whiteSpace=wrap;html=1;fillColor=#dae8fc;strokeColor=#6c8ebf;" vertex="1" parent="1">
          <mxGeometry x="520" y="1060" width="120" height="60" as="geometry" />
        </mxCell>
        <mxCell id="zbALXQMO0kuMNfBM5tC5-62" style="edgeStyle=orthogonalEdgeStyle;rounded=0;orthogonalLoop=1;jettySize=auto;html=1;exitX=0.5;exitY=0;exitDx=0;exitDy=0;entryX=0.5;entryY=1;entryDx=0;entryDy=0;" edge="1" parent="1" source="zbALXQMO0kuMNfBM5tC5-50" target="zbALXQMO0kuMNfBM5tC5-7">
          <mxGeometry relative="1" as="geometry">
            <Array as="points">
              <mxPoint x="100" y="1210" />
              <mxPoint x="20" y="1210" />
              <mxPoint x="20" y="360" />
              <mxPoint x="100" y="360" />
            </Array>
          </mxGeometry>
        </mxCell>
        <mxCell id="zbALXQMO0kuMNfBM5tC5-50" value="Produto_Código" style="rounded=0;whiteSpace=wrap;html=1;fillColor=#dae8fc;strokeColor=#6c8ebf;" vertex="1" parent="1">
          <mxGeometry x="40" y="1220" width="120" height="60" as="geometry" />
        </mxCell>
        <mxCell id="zbALXQMO0kuMNfBM5tC5-51" value="Tem (Produto tem Encomenda)" style="text;strokeColor=none;fillColor=none;html=1;fontSize=24;fontStyle=1;verticalAlign=middle;align=center;fontColor=#66B2FF;labelBackgroundColor=none;" vertex="1" parent="1">
          <mxGeometry x="40" y="1170" width="350" height="40" as="geometry" />
        </mxCell>
        <mxCell id="zbALXQMO0kuMNfBM5tC5-61" style="edgeStyle=orthogonalEdgeStyle;rounded=0;orthogonalLoop=1;jettySize=auto;html=1;exitX=0.5;exitY=0;exitDx=0;exitDy=0;" edge="1" parent="1" source="zbALXQMO0kuMNfBM5tC5-52" target="zbALXQMO0kuMNfBM5tC5-43">
          <mxGeometry relative="1" as="geometry" />
        </mxCell>
        <mxCell id="zbALXQMO0kuMNfBM5tC5-52" value="Encomenda_Número" style="rounded=0;whiteSpace=wrap;html=1;fillColor=#dae8fc;strokeColor=#6c8ebf;" vertex="1" parent="1">
          <mxGeometry x="160" y="1220" width="120" height="60" as="geometry" />
        </mxCell>
      </root>
    </mxGraphModel>
  </diagram>
</mxfile>
